<?xml version="1.0" ?>
<svg xmlns="http://www.w3.org/2000/svg" width="1850" height="920">
  <defs>
    <marker id="arrow_inh" markerWidth="12" markerHeight="12" refX="10" refY="6" orient="auto" markerUnits="strokeWidth">
      <path d="M 0 0 L 12 6 L 0 12 z" fill="white" stroke="black"/>
    </marker>
    <marker id="arrow_assoc" markerWidth="10" markerHeight="10" refX="10" refY="5" orient="auto" markerUnits="strokeWidth">
      <path d="M 0 0 L 10 5 L 0 10 z" fill="black"/>
    </marker>
    <marker id="diamond_open" markerWidth="16" markerHeight="16" refX="0" refY="8" orient="auto" markerUnits="strokeWidth">
      <path d="M 0 8 L 8 0 L 16 8 L 8 16 z" fill="white" stroke="black"/>
    </marker>
    <marker id="diamond_filled" markerWidth="16" markerHeight="16" refX="0" refY="8" orient="auto" markerUnits="strokeWidth">
      <path d="M 0 8 L 8 0 L 16 8 L 8 16 z" fill="black" stroke="black"/>
    </marker>
  </defs>
  <g>
    <rect x="785" y="40" width="280" height="160" fill="white" stroke="black"/>
    <line x1="785" y1="70" x2="1065" y2="70" stroke="black"/>
    <line x1="785" y1="170" x2="1065" y2="170" stroke="black"/>
    <text x="925.0" y="60" text-anchor="middle" font-size="16" font-family="Arial">
      <tspan style="font-style:italic">ContenidoAudiovisual</tspan>
    </text>
    <text x="793" y="85" font-size="13" font-family="Arial">- id:int</text>
    <text x="793" y="101" font-size="13" font-family="Arial">- titulo:String</text>
    <text x="793" y="117" font-size="13" font-family="Arial">- duracionEnMinutos:int</text>
    <text x="793" y="133" font-size="13" font-family="Arial">- genero:String</text>
    <text x="793" y="188" font-size="13" font-family="Arial">+ mostrarDetalles():void</text>
  </g>
  <g>
    <rect x="120" y="260" width="280" height="160" fill="white" stroke="black"/>
    <line x1="120" y1="290" x2="400" y2="290" stroke="black"/>
    <line x1="120" y1="390" x2="400" y2="390" stroke="black"/>
    <text x="260.0" y="280" text-anchor="middle" font-size="16" font-family="Arial">Pelicula</text>
    <text x="128" y="305" font-size="13" font-family="Arial">- estudio:String</text>
    <text x="128" y="321" font-size="13" font-family="Arial">- elenco:List&lt;Actor&gt;</text>
    <text x="128" y="408" font-size="13" font-family="Arial">+ agregarActor(a:Actor):void</text>
  </g>
  <g>
    <rect x="455" y="260" width="280" height="160" fill="white" stroke="black"/>
    <line x1="455" y1="290" x2="735" y2="290" stroke="black"/>
    <line x1="455" y1="390" x2="735" y2="390" stroke="black"/>
    <text x="595.0" y="280" text-anchor="middle" font-size="16" font-family="Arial">SerieDeTV</text>
    <text x="463" y="305" font-size="13" font-family="Arial">- temporadas:int</text>
    <text x="463" y="321" font-size="13" font-family="Arial">- temporadasC:List&lt;Temporada&gt;</text>
    <text x="463" y="408" font-size="13" font-family="Arial">+ crearTemporada(n:int):Temporada</text>
  </g>
  <g>
    <rect x="790" y="260" width="280" height="160" fill="white" stroke="black"/>
    <line x1="790" y1="290" x2="1070" y2="290" stroke="black"/>
    <line x1="790" y1="390" x2="1070" y2="390" stroke="black"/>
    <text x="930.0" y="280" text-anchor="middle" font-size="16" font-family="Arial">Documental</text>
    <text x="798" y="305" font-size="13" font-family="Arial">- tema:String</text>
    <text x="798" y="321" font-size="13" font-family="Arial">- investigadores:List&lt;Investigador&gt;</text>
    <text x="798" y="408" font-size="13" font-family="Arial">+ agregarInvestigador(i:Investigador):void</text>
  </g>
  <g>
    <rect x="1125" y="260" width="280" height="160" fill="white" stroke="black"/>
    <line x1="1125" y1="290" x2="1405" y2="290" stroke="black"/>
    <line x1="1125" y1="390" x2="1405" y2="390" stroke="black"/>
    <text x="1265.0" y="280" text-anchor="middle" font-size="16" font-family="Arial">Anime</text>
    <text x="1133" y="305" font-size="13" font-family="Arial">- estudioAnimacion:String</text>
    <text x="1133" y="321" font-size="13" font-family="Arial">- publicoObjetivo:String</text>
    <text x="1133" y="337" font-size="13" font-family="Arial">- numeroEpisodios:int</text>
    <text x="1133" y="353" font-size="13" font-family="Arial">- idiomasDisponibles:List&lt;String&gt;</text>
    <text x="1133" y="369" font-size="13" font-family="Arial">- tieneDoblaje:boolean</text>
    <text x="1133" y="408" font-size="13" font-family="Arial">+ reproducirOpening():void</text>
  </g>
  <g>
    <rect x="1460" y="260" width="280" height="160" fill="white" stroke="black"/>
    <line x1="1460" y1="290" x2="1740" y2="290" stroke="black"/>
    <line x1="1460" y1="390" x2="1740" y2="390" stroke="black"/>
    <text x="1600.0" y="280" text-anchor="middle" font-size="16" font-family="Arial">ConciertosEnVivo</text>
    <text x="1468" y="305" font-size="13" font-family="Arial">- artistaPrincipal:String</text>
    <text x="1468" y="321" font-size="13" font-family="Arial">- lugar:String</text>
    <text x="1468" y="337" font-size="13" font-family="Arial">- fechaEvento:String</text>
    <text x="1468" y="353" font-size="13" font-family="Arial">- asistentes:int</text>
    <text x="1468" y="369" font-size="13" font-family="Arial">- cancionesInterpretadas:List&lt;String&gt;</text>
    <text x="1468" y="408" font-size="13" font-family="Arial">+ iniciarConcierto():void</text>
  </g>
  <g>
    <rect x="120" y="540" width="280" height="160" fill="white" stroke="black"/>
    <line x1="120" y1="570" x2="400" y2="570" stroke="black"/>
    <line x1="120" y1="670" x2="400" y2="670" stroke="black"/>
    <text x="260.0" y="560" text-anchor="middle" font-size="16" font-family="Arial">Actor</text>
    <text x="128" y="585" font-size="13" font-family="Arial">- nombre:String</text>
    <text x="128" y="601" font-size="13" font-family="Arial">- edad:int</text>
    <text x="128" y="617" font-size="13" font-family="Arial">- nacionalidad:String</text>
  </g>
  <g>
    <rect x="455" y="540" width="280" height="160" fill="white" stroke="black"/>
    <line x1="455" y1="570" x2="735" y2="570" stroke="black"/>
    <line x1="455" y1="670" x2="735" y2="670" stroke="black"/>
    <text x="595.0" y="560" text-anchor="middle" font-size="16" font-family="Arial">Temporada</text>
    <text x="463" y="585" font-size="13" font-family="Arial">- numero:int</text>
    <text x="463" y="601" font-size="13" font-family="Arial">- episodios:List&lt;String&gt;</text>
  </g>
  <g>
    <rect x="790" y="540" width="280" height="160" fill="white" stroke="black"/>
    <line x1="790" y1="570" x2="1070" y2="570" stroke="black"/>
    <line x1="790" y1="670" x2="1070" y2="670" stroke="black"/>
    <text x="930.0" y="560" text-anchor="middle" font-size="16" font-family="Arial">Investigador</text>
    <text x="798" y="585" font-size="13" font-family="Arial">- nombre:String</text>
    <text x="798" y="601" font-size="13" font-family="Arial">- especialidad:String</text>
    <text x="798" y="617" font-size="13" font-family="Arial">- afiliacion:String</text>
  </g>
  <line x1="260.0" y1="260" x2="925.0" y2="200" stroke="black" marker-end="url(#arrow_inh)"/>
  <line x1="595.0" y1="260" x2="925.0" y2="200" stroke="black" marker-end="url(#arrow_inh)"/>
  <line x1="930.0" y1="260" x2="925.0" y2="200" stroke="black" marker-end="url(#arrow_inh)"/>
  <line x1="1265.0" y1="260" x2="925.0" y2="200" stroke="black" marker-end="url(#arrow_inh)"/>
  <line x1="1600.0" y1="260" x2="925.0" y2="200" stroke="black" marker-end="url(#arrow_inh)"/>
  <line x1="260.0" y1="420" x2="260.0" y2="540" stroke="black" marker-start="url(#diamond_open)"/>
  <text x="260.0" y="512.4" font-size="12" font-family="Arial">0..*</text>
  <line x1="595.0" y1="420" x2="595.0" y2="540" stroke="black" marker-start="url(#diamond_filled)"/>
  <text x="595.0" y="512.4" font-size="12" font-family="Arial">1..*</text>
  <line x1="930.0" y1="420" x2="930.0" y2="540" stroke="black" marker-end="url(#arrow_assoc)"/>
  <text x="930.0" y="512.4" font-size="12" font-family="Arial">0..*</text>
  <text x="925.0" y="24" text-anchor="middle" font-size="20" font-family="Arial">Diagrama de Clases - Unidad 2 (POO)</text>
</svg>
